Coordinates
version=1
nRows=14
nColumns=40
inDegrees=yes

Units are S.I. units (second, meters, Newtons, ...)
Angles are in degrees.

endheader
time	pelvis_tilt	pelvis_list	pelvis_rotation	pelvis_tx	pelvis_ty	pelvis_tz	hip_flexion_r	hip_adduction_r	hip_rotation_r	knee_angle_r	knee_angle_r_beta	ankle_angle_r	subtalar_angle_r	mtp_angle_r	hip_flexion_l	hip_adduction_l	hip_rotation_l	knee_angle_l	knee_angle_l_beta	ankle_angle_l	subtalar_angle_l	mtp_angle_l	lumbar_extension	lumbar_bending	lumbar_rotation	arm_flex_r	arm_add_r	arm_rot_r	elbow_flex_r	pro_sup_r	wrist_flex_r	wrist_dev_r	arm_flex_l	arm_add_l	arm_rot_l	elbow_flex_l	pro_sup_l	wrist_flex_l	wrist_dev_l
     21.36250000	     -6.65577262	     -4.83646248	     -3.94852933	      0.81634568	      0.92100407	      0.49441984	     22.99825178	      2.37786505	    -11.61368296	     20.39274327	     20.39274327	      5.57537058	     -4.65469891	     -2.12231909	      7.18380931	     -7.80786761	     -7.49764711	     33.78685200	     33.78685200	     15.78368148	    -16.36669927	     -5.03015610	     -9.24323614	      8.34800598	      0.84715933	     -3.20460969	    -13.13314269	     -8.24291777	     30.97626906	     46.32771300	      0.00000000	      0.00000000	     13.31285039	    -10.71197060	     -8.63667442	     56.39165446	     47.09581490	      0.00000000	      0.00000000
     21.37485714	     -6.58714411	     -5.04021658	     -3.90142816	      0.81730784	      0.92157777	      0.49683338	     22.28947187	      2.72026781	    -11.76140847	     20.17554640	     20.17554640	      5.99419812	     -4.42590915	     -2.29666362	      8.54413853	     -8.50591713	     -7.23856447	     37.14459447	     37.14459447	     14.52231141	    -17.21649126	     -5.30290116	     -9.25570392	      8.48006000	      0.57194474	     -1.75137035	    -13.19543457	     -8.33029925	     31.90670885	     46.30376266	      0.00000000	      0.00000000	     12.15056994	    -10.45821057	     -8.40049287	     54.61464500	     47.04409378	      0.00000000	      0.00000000
     21.38721429	     -6.54802083	     -5.22613446	     -3.87028279	      0.81811370	      0.92202471	      0.49928611	     21.60992995	      3.04789047	    -11.93933814	     19.93677466	     19.93677466	      6.38943545	     -4.12108254	     -2.51339680	     10.03221614	     -9.22256608	     -7.00565916	     40.60052444	     40.60052444	     13.09976463	    -17.85416299	     -5.42116525	     -9.21347649	      8.55795258	      0.25267939	     -0.26497138	    -13.24000548	     -8.36898457	     33.01839882	     46.26861798	      0.00000000	      0.00000000	     11.17344536	    -10.23127462	     -8.20779074	     52.13029424	     46.98940621	      0.00000000	      0.00000000
     21.39957143	     -6.45341159	     -5.35147193	     -3.90599042	      0.81867846	      0.92254767	      0.50178478	     20.91049810	      3.30780880	    -12.12564915	     19.73742781	     19.73742781	      6.67808485	     -3.67779068	     -3.00525509	     11.53037345	     -9.85678090	     -6.75578120	     44.10724239	     44.10724239	     11.87395936	    -18.25237921	     -4.28545667	     -9.24796321	      8.55028691	      0.97370150	      0.30258074	    -13.58804311	     -8.02620099	     35.36230768	     46.13870795	      0.00000000	      0.00000000	     12.20547528	     -9.35160326	     -8.09250477	     45.80846087	     46.91948121	      0.00000000	      0.00000000
     21.41192857	     -6.44104608	     -5.59835083	     -3.90291927	      0.81906037	      0.92275028	      0.50431296	     20.30251612	      3.70579203	    -12.32745617	     19.54192232	     19.54192232	      7.06316535	     -3.34994492	     -3.16199364	     13.21143470	    -10.66573821	     -6.42969610	     47.63498939	     47.63498939	     10.25088131	    -18.55653326	     -3.85719590	     -9.28496452	      8.62122111	      0.82734254	      1.82267321	    -13.66280645	     -8.10069799	     36.53828675	     46.10447181	      0.00000000	      0.00000000	     11.02552758	     -9.15434890	     -7.92527879	     44.28013071	     46.87517011	      0.00000000	      0.00000000
     21.42428571	     -6.47984446	     -5.79263422	     -3.90807591	      0.81911916	      0.92289203	      0.50681085	     19.78687036	      4.03660660	    -12.56207323	     19.37716000	     19.37716000	      7.39517021	     -2.92257868	     -3.31016430	     14.99072963	    -11.37316479	     -6.00750154	     51.05072865	     51.05072865	      8.75322189	    -18.73606743	     -2.66435927	     -9.30625355	      8.60016111	      0.51845429	      3.45880472	    -13.64681263	     -8.04790310	     38.11475368	     46.04676505	      0.00000000	      0.00000000	     10.02903980	     -9.06637161	     -7.76508602	     41.90818788	     46.82722616	      0.00000000	      0.00000000
     21.43664286	     -6.47419965	     -5.83532744	     -3.96085148	      0.81897883	      0.92304366	      0.50896603	     19.31673469	      4.15051731	    -12.80139617	     19.37198928	     19.37198928	      7.88673361	     -2.24818050	     -3.38418499	     16.88009342	    -11.61053636	     -5.19362566	     54.61151296	     54.61151296	      8.97015133	    -18.72038850	      3.40426350	     -9.33017655	      8.46811856	      1.31049380	      3.78517867	    -14.30842683	     -6.94510836	     41.58893189	     45.83928359	      0.00000000	      0.00000000	     11.06977760	     -8.33065267	     -7.68042798	     35.92754439	     46.78356336	      0.00000000	      0.00000000
     21.44900000	     -6.48431292	     -5.98387006	     -3.97247849	      0.81869026	      0.92309756	      0.51123940	     18.83054909	      4.42710239	    -12.94196842	     19.27666608	     19.27666608	      8.28239665	     -1.91670353	     -3.41332370	     18.57860838	    -12.13795072	     -4.65941952	     57.52314361	     57.52314361	      7.65396356	    -18.83010415	      4.78528012	     -9.41796232	      8.37397227	      0.95944573	      5.53058102	    -14.28302828	     -6.85372875	     43.46678196	     45.77078389	      0.00000000	      0.00000000	      9.92020577	     -8.30042310	     -7.64283108	     34.12591882	     46.75055926	      0.00000000	      0.00000000
     21.46135714	     -6.54915014	     -6.09616943	     -3.99498540	      0.81814752	      0.92314065	      0.51330957	     18.45390376	      4.63056111	    -13.13767495	     19.25500960	     19.25500960	      8.73909624	     -1.40979310	     -3.27205007	     20.36927910	    -12.47236500	     -3.96412710	     60.22906428	     60.22906428	      7.22375682	    -18.80381842	      8.16283446	     -9.49569276	      8.24830715	      1.22666137	      6.66886850	    -14.69640517	     -6.00038430	     46.04887279	     45.63534373	      0.00000000	      0.00000000	      9.60564870	     -8.00228681	     -7.65658193	     31.20953954	     46.73055580	      0.00000000	      0.00000000
     21.47371429	     -6.65497999	     -6.22253687	     -3.99328035	      0.81747101	      0.92315289	      0.51532772	     18.05879108	      4.88820194	    -13.24152030	     19.07177494	     19.07177494	      9.02198233	     -1.15380744	     -3.25132510	     22.04332729	    -12.89698723	     -3.44394814	     62.36544766	     62.36544766	      6.20960352	    -18.84266025	      8.91432332	     -9.51563135	      8.11153157	      1.10136346	      8.43597803	    -14.68099452	     -5.92686153	     47.60961301	     45.58407235	      0.00000000	      0.00000000	      8.50045616	     -7.94181168	     -7.62909204	     29.91701037	     46.70504490	      0.00000000	      0.00000000
     21.48607143	     -6.70815910	     -6.26328959	     -3.98457335	      0.81669349	      0.92330935	      0.51704594	     17.66294733	      5.01075491	    -13.35047372	     18.99677637	     18.99677637	      9.49791483	     -0.74367907	     -2.97569456	     23.63299307	    -13.08267849	     -2.84533503	     64.15391097	     64.15391097	      6.19438207	    -18.76091141	     11.58489299	     -9.64884108	      7.90897058	      1.32233131	      9.56923239	    -15.25654319	     -4.76443466	     50.62021889	     45.43314008	      0.00000000	      0.00000000	      8.03414834	     -7.65669232	     -7.73588423	     27.49408186	     46.70215352	      0.00000000	      0.00000000
     21.49842857	     -6.83216987	     -6.33400625	     -3.93465795	      0.81576322	      0.92344401	      0.51870484	     17.26607764	      5.20258184	    -13.42154192	     18.72464601	     18.72464601	      9.74144065	     -0.52926421	     -2.95297713	     25.16077653	    -13.36864782	     -2.38611594	     65.34834717	     65.34834717	      5.70916732	    -18.79340622	     11.85819733	     -9.70467176	      7.70767210	      1.18846430	     11.44351027	    -15.15850487	     -4.77796717	     52.16880439	     45.38981803	      0.00000000	      0.00000000	      6.92901085	     -7.68395701	     -7.73019864	     26.59089513	     46.67991638	      0.00000000	      0.00000000
     21.51078571	     -6.87132639	     -6.26008285	     -3.93589508	      0.81482006	      0.92379226	      0.52018025	     16.82729873	      5.23858147	    -13.32548643	     18.53170694	     18.53170694	     10.01253502	     -0.39485160	     -2.98999453	     26.43096205	    -13.51545919	     -2.16287290	     65.97171631	     65.97171631	      5.48380728	    -18.85258833	     11.89878798	     -9.87390801	      7.29903440	      1.79503253	     13.03571859	    -15.46997351	     -4.88417058	     52.98488256	     45.37426574	      0.00000000	      0.00000000	      6.13381266	     -7.50111901	     -7.71589002	     26.17922064	     46.66255959	      0.00000000	      0.00000000
     21.52314286	     -7.10551215	     -6.45750906	     -3.72122640	      0.81368313	      0.92385433	      0.52130254	     16.42001034	      5.53951040	    -13.57780342	     17.98483974	     17.98483974	     10.14021167	     -0.15220343	     -2.87839644	     28.03986873	    -13.85593133	     -1.62152249	     66.29211832	     66.29211832	      5.67493259	    -18.86735331	     12.37464711	     -9.81420406	      7.35510064	      0.97359835	     15.10325583	    -15.06652637	     -4.76454326	     55.39536753	     45.29528244	      0.00000000	      0.00000000	      4.75103350	     -7.59148514	     -7.67020285	     25.12166255	     46.63155070	      0.00000000	      0.00000000
